<svg width="32" height="32" viewBox="0 0 32 32" fill="none" xmlns="http://www.w3.org/2000/svg">
<g clip-path="url(#clip0_119_13)">
<path d="M26.6667 22.1875C26.6667 22.0347 26.6528 21.9236 26.625 21.8542C26.5972 21.7847 26.4722 21.6701 26.25 21.5104C26.0278 21.3507 25.7465 21.1771 25.4062 20.9896C25.066 20.8021 24.7361 20.6181 24.4167 20.4375C24.0972 20.2569 23.7812 20.0833 23.4688 19.9167C23.1562 19.75 22.9583 19.6458 22.875 19.6042C22.8056 19.5625 22.6736 19.4722 22.4792 19.3333C22.2847 19.1944 22.1111 19.0903 21.9583 19.0208C21.8056 18.9514 21.6597 18.9167 21.5208 18.9167C21.3125 18.9167 21.059 19.059 20.7604 19.3438C20.4618 19.6285 20.1875 19.941 19.9375 20.2812C19.6875 20.6215 19.4201 20.934 19.1354 21.2188C18.8507 21.5035 18.6181 21.6458 18.4375 21.6458C18.3403 21.6458 18.2257 21.6215 18.0938 21.5729C17.9618 21.5243 17.8542 21.4792 17.7708 21.4375C17.6875 21.3958 17.5694 21.3299 17.4167 21.2396C17.2639 21.1493 17.1667 21.0903 17.125 21.0625C15.75 20.2986 14.5694 19.4201 13.5833 18.4271C12.5972 17.434 11.7153 16.25 10.9375 14.875C10.9097 14.8333 10.8507 14.7361 10.7604 14.5833C10.6701 14.4306 10.6042 14.3125 10.5625 14.2292C10.5208 14.1458 10.4757 14.0382 10.4271 13.9062C10.3785 13.7743 10.3542 13.6597 10.3542 13.5625C10.3542 13.3819 10.4965 13.1493 10.7812 12.8646C11.066 12.5799 11.3785 12.3125 11.7188 12.0625C12.059 11.8125 12.3715 11.5382 12.6562 11.2396C12.941 10.941 13.0833 10.6875 13.0833 10.4792C13.0833 10.3403 13.0486 10.1944 12.9792 10.0417C12.9097 9.88889 12.8056 9.71528 12.6667 9.52083C12.5278 9.32639 12.4375 9.19444 12.3958 9.125C12.3542 9.04167 12.25 8.84375 12.0833 8.53125C11.9167 8.21875 11.7431 7.90278 11.5625 7.58333C11.3819 7.26389 11.1979 6.93403 11.0104 6.59375C10.8229 6.25347 10.6493 5.97222 10.4896 5.75C10.3299 5.52778 10.2153 5.40278 10.1458 5.375C10.0764 5.34722 9.96528 5.33333 9.8125 5.33333C9.14583 5.33333 8.44444 5.48611 7.70833 5.79167C7.06944 6.08333 6.51389 6.73958 6.04167 7.76042C5.56944 8.78125 5.33333 9.6875 5.33333 10.4792C5.33333 10.7014 5.35069 10.9375 5.38542 11.1875C5.42014 11.4375 5.45486 11.6493 5.48958 11.8229C5.52431 11.9965 5.58681 12.2257 5.67708 12.5104C5.76736 12.7951 5.83681 13 5.88542 13.125C5.93403 13.25 6.02083 13.4792 6.14583 13.8125C6.27083 14.1458 6.34722 14.3542 6.375 14.4375C7.20833 16.7153 8.71181 18.941 10.8854 21.1146C13.059 23.2882 15.2847 24.7917 17.5625 25.625C17.6458 25.6528 17.8542 25.7292 18.1875 25.8542C18.5208 25.9792 18.75 26.066 18.875 26.1146C19 26.1632 19.2049 26.2326 19.4896 26.3229C19.7743 26.4132 20.0035 26.4757 20.1771 26.5104C20.3507 26.5451 20.5625 26.5799 20.8125 26.6146C21.0625 26.6493 21.2986 26.6667 21.5208 26.6667C22.3125 26.6667 23.2188 26.4306 24.2396 25.9583C25.2604 25.4861 25.9167 24.9306 26.2083 24.2917C26.5139 23.5556 26.6667 22.8542 26.6667 22.1875ZM32 6V26C32 27.6528 31.4132 29.066 30.2396 30.2396C29.066 31.4132 27.6528 32 26 32H6C4.34722 32 2.93403 31.4132 1.76042 30.2396C0.586806 29.066 0 27.6528 0 26V6C0 4.34722 0.586806 2.93403 1.76042 1.76042C2.93403 0.586806 4.34722 0 6 0H26C27.6528 0 29.066 0.586806 30.2396 1.76042C31.4132 2.93403 32 4.34722 32 6Z" fill="#FFBB00"/>
</g>
<defs>
<clipPath id="clip0_119_13">
<rect width="32" height="32" fill="white"/>
</clipPath>
</defs>
</svg>
